<?xml version="1.0" encoding="UTF-8"?>
<!DOCTYPE svg PUBLIC "-//W3C//DTD SVG 1.1//EN" "http://www.w3.org/Graphics/SVG/1.1/DTD/svg11.dtd">
<svg version="1.1" xmlns="http://www.w3.org/2000/svg" xmlns:xlink="http://www.w3.org/1999/xlink" x="0" y="0" width="603" height="392" viewBox="0, 0, 603, 392">
  <g id="Layer_1">
    <g>
      <path d="M255.003,295.131 C393.083,295.131 505.703,267.015 505.703,232.54 C505.703,198.065 393.083,169.948 255.003,169.948 C116.92,169.948 4.3,198.065 4.3,232.54 C4.3,267.014 116.92,295.131 255.003,295.131" fill="#E5E5E0"/>
      <path d="M435.083,384.985 C422.886,386.102 354.241,392.099 344.108,387.539 C324.294,378.624 371.47,357.397 281.243,343.788 C239.647,337.513 208.378,335.427 166.728,333.541 C147.095,332.653 90.36,332.573 85.808,309.211 L85.426,304.557 C84.922,273.064 125.182,269.006 149.526,265.415 C197.198,258.384 235.731,257.348 283.299,256.048 C322.887,254.965 351.04,247.133 300.866,220.278 L297.295,218.368 C289.524,214.332 255.297,199.936 270.635,190.269 C294.533,175.205 369.459,173.633 397.221,174.707 C448.654,176.896 544.153,190.183 587.269,216.349 C643.17,250.272 508.138,259.981 492.638,262.498 C483.451,263.99 435.552,272.242 460.124,289.735 C480.106,303.958 565.546,315.911 569.743,340.102 C574.535,367.739 455.963,382.904 435.083,384.985" fill="#DA5D2A"/>
    </g>
    <path d="M316.676,229.867 C312.643,226.977 307.429,223.793 300.866,220.278 L297.295,218.368 C289.524,214.332 255.297,199.936 270.635,190.269 C294.533,175.205 369.459,173.633 397.221,174.707 C399.132,174.788 401.112,174.887 403.14,174.999 L403.14,195.77 C403.141,214.524 387.795,229.867 369.042,229.867 L316.676,229.867" fill="#B14F2D"/>
    <path d="M64.448,214.543 C29.959,214.543 2,166.855 2,108.031 C2,49.208 29.959,1.52 64.448,1.52 L64.448,1.519 L372.874,1.519 C391.629,1.519 406.972,16.863 406.972,35.617 L406.972,180.445 C406.972,199.199 391.629,214.543 372.874,214.543 L64.448,214.543" fill="#E46C2A"/>
    <path d="M276.873,8.617 L64.448,8.618 C62.713,8.618 60.981,8.768 59.271,9.064 C50.904,10.515 43.646,15.282 37.611,21.428 C33.249,25.87 31.151,31.322 31.408,37.542 C31.663,43.766 34.202,49.024 38.916,53.095 C39.989,54.021 41.126,54.947 42.331,55.87 C53.097,64.127 94.361,49.708 126.872,55.07 C173.325,62.734 169.06,102.869 223.653,82.077 C255.711,69.867 310.277,27.029 276.873,8.618 L276.873,8.617" fill="#E87F3E"/>
    <path d="M228.245,16.062 L64.448,16.062 C63.601,16.062 62.752,16.136 61.919,16.281 C56.791,17.17 52.221,20.611 48.664,24.234 C47.313,25.612 46.804,26.929 46.883,28.858 C46.963,30.8 47.569,32.054 49.038,33.323 C49.612,33.817 50.195,34.3 50.784,34.772 C54.655,35.477 64.511,34.306 67.881,33.924 C79.39,32.621 90.764,31.025 102.355,30.494 C111.357,30.081 120.486,30.271 129.396,31.741 C143.065,33.996 154.637,38.854 165.914,46.823 C172.292,51.33 178.7,57.473 185.313,61.303 C195.662,67.298 207.699,63.529 218.139,59.554 C224.756,57.035 231.519,53.465 237.821,49.541 C244.786,45.202 247.911,37.08 245.653,29.191 C243.398,21.303 236.449,16.062 228.245,16.062" fill="#ED985E"/>
    <path d="M64.448,214.543 C33.045,214.543 7.059,175.005 2.658,123.527 C4.773,133.369 7.545,141.831 10.862,149.144 C20.71,170.851 41.099,183.989 64.938,183.989 C124.887,183.989 184.836,183.989 244.786,183.989 C256.444,183.989 266.477,179.629 274.432,171.106 C282.386,162.582 286.042,152.271 285.239,140.639 C281.014,79.518 301.707,12.325 361.003,12.345 C324.551,31.704 315.316,72.57 315.95,120.457 C316.684,175.901 348.726,214.416 376.732,214.321 C375.465,214.466 374.178,214.543 372.874,214.543 L64.448,214.543" fill="#DA5D2A"/>
    <path d="M390.584,204.582 C424.98,204.582 453.035,161.209 453.035,108.031 C453.035,54.854 424.98,11.48 390.583,11.48 C356.188,11.48 328.132,54.854 328.132,108.031 C328.132,161.209 356.188,204.582 390.584,204.582" fill="#ADADA9"/>
    <path d="M412.422,22.06 C437.113,32.026 455.335,66.737 455.335,108.031 C455.335,149.325 437.113,184.037 412.422,194.003 L412.422,196.883 L397.864,196.883 C366.124,196.883 340.395,157.102 340.395,108.031 C340.395,58.96 366.124,19.18 397.864,19.18 L412.422,19.18 L412.422,22.06" fill="#C7C7C2"/>
    <path d="M412.422,196.883 C444.077,196.883 469.895,156.969 469.895,108.031 C469.895,59.094 444.077,19.18 412.422,19.18 C380.769,19.18 354.951,59.094 354.951,108.031 C354.951,156.969 380.769,196.883 412.422,196.883" fill="#F4F4F2"/>
    <path d="M412.422,191.555 C441.142,191.555 464.566,154.035 464.566,108.031 C464.566,62.028 441.142,24.508 412.422,24.508 C383.704,24.508 360.279,62.028 360.279,108.031 C360.279,154.034 383.704,191.555 412.422,191.555" fill="#ADADA9"/>
    <path d="M405.046,190.72 C379.743,184.978 360.279,150.148 360.279,108.031 C360.279,65.914 379.743,31.083 405.046,25.344 C430.351,31.083 449.814,65.914 449.814,108.031 C449.814,150.148 430.352,184.978 405.046,190.72" fill="#E5E5E0"/>
    <path d="M402.372,125.175 C412.424,125.175 420.57,145.039 420.57,159.848 C420.57,174.662 412.424,178.813 402.372,178.813 C392.319,178.813 384.171,174.662 384.171,159.848 C384.171,145.039 392.319,125.175 402.372,125.175" fill="#2D2E2C"/>
    <path d="M207.762,50.463 C248.495,50.463 272.074,80.954 272.074,121.687 C272.074,162.42 248.495,197.972 207.762,197.972 C167.031,197.972 124.567,162.42 124.567,121.687 C124.567,80.954 167.031,50.463 207.762,50.463" fill="#F8C823"/>
    <path d="M162.627,183.989 L244.786,183.989 C245.444,183.989 246.098,183.976 246.746,183.947 C236.524,192.72 223.411,197.972 207.762,197.972 C192.14,197.972 176.263,192.737 162.627,183.989" fill="#F3B428"/>
    <path d="M156.094,66.909 C175.465,80.277 184.16,97.118 223.653,82.077 C232.097,78.86 242.102,73.518 251.65,67.057 C240.862,56.607 226.041,50.463 207.762,50.463 C189.57,50.463 171.037,56.55 156.094,66.909" fill="#FADA3C"/>
    <path d="M177.518,55.891 C180.092,57.896 182.687,59.781 185.313,61.303 C195.662,67.298 207.699,63.529 218.139,59.554 C222.137,58.031 226.192,56.125 230.164,53.988 C223.422,51.694 215.938,50.463 207.762,50.463 C197.558,50.463 187.246,52.379 177.518,55.891" fill="#FDF07F"/>
    <path d="M135.92,306.173 C116.114,289.551 166.428,280.519 175.054,279.279 C211.78,274.006 231.85,273.404 268.572,273.741 C295.726,273.991 305.142,273.124 331.993,268.424 C358.04,263.864 367.895,273.696 389.196,286.243 C403.247,294.519 441.987,319.737 403.22,326.527 C333.929,338.665 266.207,321.668 197.066,319.822 C176.438,319.269 153.228,318.914 135.92,306.173" fill="#E46C2A"/>
    <path d="M364.116,300.072 C361.706,306.288 348.815,308.428 342.664,310.588 C320.073,318.525 236.271,321.426 216.006,309.686 C181.232,289.546 322.715,282.427 327.114,282.295 C339.876,281.915 353.675,282.936 362.226,293.988 C363.977,296.253 364.263,297.343 364.116,300.072" fill="#E87F3E"/>
    <path d="M562.435,223.57 C554.59,250.502 478.72,237.019 459.028,231.755 C424.649,222.564 438.478,205.776 467.6,201.887 C483.177,199.805 560.706,197.507 562.482,221.174 L562.435,223.57" fill="#E46C2A"/>
    <path d="M398.944,178.636 C413.444,188.654 418.119,211.078 412.549,231.88 C407.184,251.913 499.68,240.436 479.42,235.999 C455.801,230.826 458.524,185.658 416.208,173.944 C410.461,172.355 394.041,175.245 398.944,178.636" fill="#DA5D2A"/>
    <path d="M529.393,216.573 C525.286,230.674 485.562,223.613 475.252,220.858 C457.253,216.046 464.491,207.256 479.739,205.219 C487.896,204.13 528.489,202.927 529.417,215.318 L529.393,216.573" fill="#E87F3E"/>
  </g>
</svg>
